Moderustic-Regular.ufo
<glyph name="exclam" format="2">
  <advance width="255"/>
  <unicode hex="0021"/>
  <outline>
    <component base="period" xScale="0.906673" yScale="0.906673" xOffset="10.2258" yOffset="-1.86654"/>
    <contour>
      <point x="88" y="249" type="line"/>
      <point x="167" y="249" type="line"/>
      <point x="183" y="750" type="line"/>
      <point x="72" y="750" type="line"/>
    </contour>
  </outline>
</glyph>
<glyph name="ampersand" format="2">
  <advance width="664"/>
  <unicode hex="0026"/>
  <outline>
    <contour>
      <point x="265" y="409" type="line"/>
      <point x="210.348" y="456"/>
      <point x="186.5" y="495"/>
      <point x="186.5" y="543" type="curve" smooth="yes"/>
      <point x="186.5" y="605"/>
      <point x="226.209" y="640"/>
      <point x="287.757" y="640" type="curve" smooth="yes"/>
      <point x="351.291" y="640"/>
      <point x="391" y="603"/>
      <point x="391" y="551" type="curve" smooth="yes"/>
      <point x="391" y="471"/>
      <point x="296.569" y="432"/>
      <point x="225" y="395" type="curve"/>
    </contour>
    <contour>
      <point x="301" y="365" type="line"/>
      <point x="425.693" y="425"/>
      <point x="481" y="474"/>
      <point x="481" y="559" type="curve" smooth="yes"/>
      <point x="481" y="656"/>
      <point x="408.718" y="720"/>
      <point x="290.256" y="720" type="curve" smooth="yes"/>
      <point x="171.794" y="720"/>
      <point x="96.5" y="656"/>
      <point x="96.5" y="554" type="curve" smooth="yes"/>
      <point x="96.5" y="476"/>
      <point x="140.724" y="424"/>
      <point x="195" y="372" type="curve"/>
      <point x="115" y="338"/>
      <point x="47" y="270"/>
      <point x="47" y="173" type="curve" smooth="yes"/>
      <point x="47" y="58"/>
      <point x="142" y="-20"/>
      <point x="286" y="-20" type="curve" smooth="yes"/>
      <point x="429" y="-20"/>
      <point x="545" y="58"/>
      <point x="642" y="206" type="curve"/>
      <point x="584" y="264" type="line"/>
      <point x="513" y="127"/>
      <point x="396" y="60"/>
      <point x="291" y="60" type="curve" smooth="yes"/>
      <point x="210" y="60"/>
      <point x="137" y="109"/>
      <point x="137" y="192" type="curve" smooth="yes"/>
      <point x="137" y="247"/>
      <point x="170" y="299"/>
      <point x="229" y="325" type="curve"/>
      <point x="515" y="0" type="line"/>
      <point x="626" y="0" type="line"/>
    </contour>
  </outline>
</glyph>
<glyph name="plus" format="2">
  <advance width="566"/>
  <unicode hex="002B"/>
  <outline>
    <contour>
      <point x="260" y="262" type="line"/>
      <point x="260" y="55" type="line"/>
      <point x="296" y="55" type="line"/>
      <point x="296" y="262" type="line"/>
      <point x="516" y="262" type="line"/>
      <point x="516" y="298" type="line"/>
      <point x="296" y="298" type="line"/>
      <point x="296" y="505" type="line"/>
      <point x="260" y="505" type="line"/>
      <point x="260" y="298" type="line"/>
      <point x="50" y="298" type="line"/>
      <point x="50" y="262" type="line"/>
    </contour>
  </outline>
</glyph>
<glyph name="period" format="2">
  <advance width="262"/>
  <unicode hex="002E"/>
  <outline>
    <contour>
      <point x="72.5" y="35.9649" type="curve" smooth="yes"/>
      <point x="72.5" y="5.08772"/>
      <point x="96.1053" y="-20"/>
      <point x="131" y="-20" type="curve" smooth="yes"/>
      <point x="164.868" y="-20"/>
      <point x="189.5" y="5.08772"/>
      <point x="189.5" y="35.9649" type="curve" smooth="yes"/>
      <point x="189.5" y="66.8421"/>
      <point x="164.868" y="90"/>
      <point x="131" y="90" type="curve" smooth="yes"/>
      <point x="96.1053" y="90"/>
      <point x="72.5" y="66.8421"/>
    </contour>
  </outline>
</glyph>
<glyph name="four" format="2">
  <advance width="685"/>
  <unicode hex="0034"/>
  <outline>
    <contour>
      <point x="62" y="171" type="line"/>
      <point x="412" y="171" type="line"/>
      <point x="412" y="0" type="line"/>
      <point x="502" y="0" type="line"/>
      <point x="502" y="171" type="line"/>
      <point x="638" y="171" type="line"/>
      <point x="638" y="252" type="line"/>
      <point x="502" y="252" type="line"/>
      <point x="502" y="700" type="line"/>
      <point x="388" y="700" type="line"/>
      <point x="62" y="217" type="line"/>
    </contour>
    <contour>
      <point x="183" y="252" type="line"/>
      <point x="412" y="591" type="line"/>
      <point x="412" y="252" type="line"/>
    </contour>
  </outline>
</glyph>
<glyph name="R" format="2">
  <advance width="648"/>
  <unicode hex="0052"/>
  <anchor x="324" y="719" name="top"/>
  <anchor x="324" y="-20" name="bottom"/>
  <outline>
    <contour>
      <point x="178" y="0" type="line" name="ab01"/>
      <point x="178" y="620" type="line" name="sv01"/>
      <point x="340" y="620" type="line" smooth="yes"/>
      <point x="456" y="620"/>
      <point x="499" y="583"/>
      <point x="499" y="482" type="curve" smooth="yes"/>
      <point x="499" y="381"/>
      <point x="456" y="344"/>
      <point x="339" y="344" type="curve" smooth="yes"/>
      <point x="100" y="344" type="line" name="dv02"/>
      <point x="100" y="264" type="line" name="dv01"/>
      <point x="344" y="264" type="line" smooth="yes"/>
      <point x="495" y="264"/>
      <point x="589" y="348"/>
      <point x="589" y="484" type="curve" smooth="yes"/>
      <point x="589" y="619"/>
      <point x="498" y="700"/>
      <point x="348" y="700" type="curve" smooth="yes" name="at01"/>
      <point x="88" y="700" type="line"/>
      <point x="88" y="0" type="line"/>
    </contour>
    <contour>
      <point x="363" y="281" type="line"/>
      <point x="506" y="0" type="line" name="ab02"/>
      <point x="607" y="0" type="line"/>
      <point x="437" y="333" type="line"/>
    </contour>
  </outline>
</glyph>
<glyph name="f" format="2">
  <advance width="423"/>
  <unicode hex="0066"/>
  <anchor x="250" y="750" name="top"/>
  <anchor x="183" y="-20" name="bottom"/>
  <outline>
    <contour>
      <point x="139" y="430" type="line" name="dv03"/>
      <point x="139" y="0" type="line" name="ab01"/>
      <point x="229" y="0" type="line"/>
      <point x="229" y="430" type="line" name="sv01"/>
      <point x="370" y="430" type="line"/>
      <point x="370" y="500" type="line" name="sv02"/>
      <point x="229" y="500" type="line"/>
      <point x="229" y="609" type="line" smooth="yes"/>
      <point x="229" y="670"/>
      <point x="248" y="680"/>
      <point x="280" y="680" type="curve" smooth="yes" name="dv01"/>
      <point x="301" y="680"/>
      <point x="337" y="676"/>
      <point x="361" y="668" type="curve"/>
      <point x="376" y="728" type="line"/>
      <point x="324" y="745.217"/>
      <point x="299" y="750"/>
      <point x="271" y="750" type="curve" smooth="yes" name="dv02"/>
      <point x="188" y="750"/>
      <point x="139" y="708.167"/>
      <point x="139" y="607.57" type="curve" smooth="yes"/>
      <point x="139" y="500" type="line" name="dv04"/>
      <point x="32" y="500" type="line"/>
      <point x="32" y="430" type="line"/>
    </contour>
  </outline>
</glyph>
<glyph name="v" format="2">
  <advance width="550"/>
  <unicode hex="0076"/>
  <anchor x="275" y="520" name="top"/>
  <anchor x="275" y="-20" name="bottom"/>
  <outline>
    <contour>
      <point x="275" y="92" type="line"/>
      <point x="134" y="500" type="line"/>
      <point x="35" y="500" type="line"/>
      <point x="227" y="0" type="line"/>
      <point x="323" y="0" type="line"/>
      <point x="515" y="500" type="line"/>
      <point x="416" y="500" type="line"/>
    </contour>
  </outline>
</glyph>
<glyph name="ae" format="2">
  <advance width="996"/>
  <unicode hex="00E6"/>
  <anchor x="516" y="520" name="top"/>
  <anchor x="508" y="-20" name="bottom"/>
  <outline>
    <contour>
      <point x="462" y="0" type="line" name="ab01"/>
      <point x="552" y="0" type="line"/>
      <point x="552" y="500" type="line" name="av01"/>
      <point x="462.5" y="500" type="line"/>
    </contour>
    <contour>
      <point x="484" y="248" type="curve" smooth="yes"/>
      <point x="484" y="422"/>
      <point x="412" y="520"/>
      <point x="279" y="520" type="curve" smooth="yes" name="at01"/>
      <point x="139" y="520"/>
      <point x="60" y="411"/>
      <point x="60" y="259" type="curve" smooth="yes"/>
      <point x="60" y="99"/>
      <point x="148" y="-20"/>
      <point x="288" y="-20" type="curve" smooth="yes" name="dv01"/>
      <point x="415" y="-20"/>
      <point x="484" y="78"/>
    </contour>
    <contour>
      <point x="150" y="256.516" type="curve" smooth="yes"/>
      <point x="150" y="377.82"/>
      <point x="206.09" y="450"/>
      <point x="298.237" y="450" type="curve" smooth="yes" name="sv01"/>
      <point x="395.393" y="450"/>
      <point x="462.5" y="369.799"/>
      <point x="462.5" y="253.509" type="curve" smooth="yes"/>
      <point x="462.5" y="139.223"/>
      <point x="397.396" y="50"/>
      <point x="301.242" y="50" type="curve" smooth="yes" name="dv02"/>
      <point x="209.095" y="50"/>
      <point x="150" y="131.203"/>
    </contour>
    <contour>
      <point x="552.5" y="298" type="line" name="sv02"/>
      <point x="562.517" y="399"/>
      <point x="621.618" y="450"/>
      <point x="702.756" y="450" type="curve" smooth="yes" name="sv01"/>
      <point x="783.894" y="450"/>
      <point x="835.983" y="399"/>
      <point x="846" y="298" type="curve" name="dv04"/>
    </contour>
    <contour>
      <point x="717" y="-20" type="curve" smooth="yes" name="dv01"/>
      <point x="806" y="-20"/>
      <point x="876" y="17"/>
      <point x="915" y="70" type="curve"/>
      <point x="862" y="123" type="line"/>
      <point x="826.943" y="77"/>
      <point x="773.858" y="51"/>
      <point x="710.756" y="51" type="curve" smooth="yes" name="dv02"/>
      <point x="602.581" y="51"/>
      <point x="552.5" y="129"/>
      <point x="552.5" y="237" type="curve" name="sv04"/>
      <point x="939" y="237" type="line" name="dv03"/>
      <point x="939" y="421"/>
      <point x="858" y="520"/>
      <point x="712" y="520" type="curve" smooth="yes" name="at01"/>
      <point x="571" y="520"/>
      <point x="476" y="427"/>
      <point x="476" y="251" type="curve" smooth="yes" name="sv03"/>
      <point x="476" y="72"/>
      <point x="574" y="-20"/>
    </contour>
  </outline>
</glyph>
<glyph name="dotaccentcomb" format="2">
  <advance width="211"/>
  <unicode hex="0307"/>
  <anchor x="105" y="663" name="top"/>
  <anchor x="105" y="500" name="_top"/>
  <outline>
    <contour>
      <point x="106" y="574" type="curve" smooth="yes" name="dv01"/>
      <point x="140" y="574"/>
      <point x="158" y="600"/>
      <point x="158" y="626" type="curve" smooth="yes"/>
      <point x="158" y="651"/>
      <point x="140" y="676"/>
      <point x="106" y="676" type="curve" smooth="yes" name="dv02"/>
      <point x="72" y="676"/>
      <point x="53" y="650"/>
      <point x="53" y="626" type="curve" smooth="yes"/>
      <point x="53" y="601"/>
      <point x="72" y="574"/>
    </contour>
  </outline>
</glyph>
<glyph name="hungarumlautcomb" format="2">
  <advance width="389"/>
  <unicode hex="030B"/>
  <anchor x="214" y="702" name="top"/>
  <anchor x="148" y="500" name="_top"/>
  <outline>
    <contour>
      <point x="256" y="551" type="line"/>
      <point x="356" y="700" type="line"/>
      <point x="265" y="700" type="line"/>
      <point x="205" y="551" type="line"/>
    </contour>
    <contour>
      <point x="35" y="551" type="line"/>
      <point x="86" y="551" type="line"/>
      <point x="186" y="700" type="line"/>
      <point x="95" y="700" type="line"/>
    </contour>
  </outline>
</glyph>
<glyph name="lownumeralsign" format="2">
  <advance width="241"/>
  <unicode hex="0375"/>
  <outline>
    <contour>
      <point x="207" y="68" type="line"/>
      <point x="150" y="68" type="line"/>
      <point x="29" y="-149" type="line"/>
      <point x="128" y="-149" type="line"/>
    </contour>
  </outline>
</glyph>
<glyph name="zeta" format="2">
  <advance width="560"/>
  <unicode hex="03B6"/>
  <anchor x="280" y="721" name="topgr"/>
  <outline>
    <contour>
      <point x="322" y="50" type="curve" smooth="yes"/>
      <point x="422" y="50"/>
      <point x="491" y="-13.745"/>
      <point x="491" y="-102.39" type="curve" smooth="yes"/>
      <point x="491" y="-147.211"/>
      <point x="473.439" y="-183.068"/>
      <point x="457.727" y="-200" type="curve"/>
      <point x="369" y="-200" type="line"/>
      <point x="394" y="-166"/>
      <point x="411" y="-143"/>
      <point x="411" y="-109" type="curve" smooth="yes"/>
      <point x="411" y="-53"/>
      <point x="368.707" y="-20"/>
      <point x="292.372" y="-20" type="curve" smooth="yes"/>
      <point x="165.492" y="-20"/>
      <point x="84" y="72"/>
      <point x="84" y="227" type="curve" smooth="yes"/>
      <point x="84" y="371"/>
      <point x="162" y="497"/>
      <point x="359" y="630" type="curve"/>
      <point x="69" y="630" type="line"/>
      <point x="69" y="700" type="line"/>
      <point x="472" y="700" type="line"/>
      <point x="472" y="636.903" type="line"/>
      <point x="238" y="480.663"/>
      <point x="174" y="383.513"/>
      <point x="174" y="240.293" type="curve" smooth="yes"/>
      <point x="174" y="120.108"/>
      <point x="219" y="50"/>
    </contour>
  </outline>
</glyph>
<glyph name="iota" format="2">
  <advance width="310"/>
  <unicode hex="03B9"/>
  <anchor x="137" y="520" name="topgr"/>
  <outline>
    <contour>
      <point x="86" y="153" type="curve" smooth="yes"/>
      <point x="86" y="500" type="line"/>
      <point x="176" y="500" type="line"/>
      <point x="176" y="147" type="line" smooth="yes"/>
      <point x="176" y="85"/>
      <point x="195" y="70"/>
      <point x="250" y="70" type="curve"/>
      <point x="250" y="0" type="line"/>
      <point x="219" y="0" type="line" smooth="yes"/>
      <point x="123" y="0"/>
      <point x="86" y="47"/>
    </contour>
  </outline>
</glyph>
<glyph name="pi" format="2">
  <advance width="645"/>
  <unicode hex="03C0"/>
  <anchor x="322" y="520" name="topgr"/>
  <outline>
    <contour>
      <point x="418" y="145.756" type="line" smooth="yes"/>
      <point x="418.185" y="40.6446"/>
      <point x="466.487" y="0"/>
      <point x="583.25" y="0" type="curve"/>
      <point x="583.25" y="70" type="line"/>
      <point x="527.545" y="70"/>
      <point x="508" y="88.9474"/>
      <point x="508" y="145.789" type="curve" smooth="yes"/>
      <point x="508.5" y="430" type="line"/>
      <point x="586" y="430" type="line"/>
      <point x="586" y="500" type="line"/>
      <point x="49" y="500" type="line"/>
      <point x="49" y="430" type="line"/>
      <point x="125" y="430" type="line"/>
      <point x="125" y="0" type="line"/>
      <point x="215" y="0" type="line"/>
      <point x="215" y="430" type="line"/>
      <point x="417.5" y="430" type="line"/>
    </contour>
  </outline>
</glyph>
<glyph name="Kaisymbol" format="2">
  <advance width="670"/>
  <unicode hex="03CF"/>
  <outline>
    <contour>
      <point x="519" y="1" type="line"/>
      <point x="519" y="-99"/>
      <point x="460" y="-141"/>
      <point x="344" y="-141" type="curve" smooth="yes"/>
      <point x="245" y="-141"/>
      <point x="160" y="-110"/>
      <point x="88" y="-40" type="curve"/>
      <point x="88" y="-130" type="line"/>
      <point x="141" y="-186"/>
      <point x="230" y="-221"/>
      <point x="339" y="-221" type="curve" smooth="yes"/>
      <point x="506" y="-221"/>
      <point x="623" y="-138"/>
      <point x="623" y="0" type="curve"/>
      <point x="541" y="17" type="line"/>
    </contour>
    <contour>
      <point x="88" y="700" type="line" name="at01"/>
      <point x="88" y="0" type="line" name="ab01"/>
      <point x="178" y="0" type="line"/>
      <point x="178" y="700" type="line"/>
    </contour>
    <contour>
      <point x="338" y="399" type="line"/>
      <point x="101" y="399" type="line"/>
      <point x="110" y="318" type="line"/>
      <point x="350" y="318" type="line"/>
      <point x="519" y="0" type="line"/>
      <point x="623" y="0" type="line"/>
      <point x="411" y="367" type="line"/>
      <point x="619" y="700" type="line"/>
      <point x="512" y="700" type="line"/>
    </contour>
  </outline>
</glyph>
<glyph name="Decyr" format="2">
  <advance width="864"/>
  <unicode hex="0414"/>
  <outline>
    <contour>
      <point x="315" y="620" type="line"/>
      <point x="602" y="620" type="line"/>
      <point x="602" y="80" type="line"/>
      <point x="252" y="80" type="line"/>
      <point x="330" y="154"/>
      <point x="337" y="201"/>
      <point x="337" y="682" type="curve"/>
    </contour>
    <contour>
      <point x="168" y="81" type="curve"/>
      <point x="79" y="81"/>
      <point x="40" y="63"/>
      <point x="40" y="-140" type="curve"/>
      <point x="120" y="-140" type="line"/>
      <point x="120" y="-47"/>
      <point x="117" y="0"/>
      <point x="176" y="0" type="curve" smooth="yes"/>
      <point x="681" y="0" type="line" smooth="yes"/>
      <point x="752" y="0"/>
      <point x="744" y="-42"/>
      <point x="744" y="-140" type="curve"/>
      <point x="824" y="-140" type="line"/>
      <point x="824" y="63"/>
      <point x="792" y="79"/>
      <point x="692" y="79" type="curve"/>
      <point x="692" y="700" type="line"/>
      <point x="247" y="700" type="line"/>
      <point x="247" y="669" type="line" smooth="yes"/>
      <point x="247" y="199"/>
      <point x="233" y="154"/>
    </contour>
  </outline>
</glyph>
<glyph name="Yucyr" format="2">
  <advance width="1090"/>
  <unicode hex="042E"/>
  <anchor x="545" y="719" name="top"/>
  <outline>
    <component base="O" xOffset="295"/>
    <component base="I" xOffset="-21"/>
    <contour>
      <point x="172" y="331" type="line"/>
      <point x="382" y="331" type="line"/>
      <point x="382" y="411" type="line"/>
      <point x="172" y="411" type="line"/>
    </contour>
  </outline>
</glyph>
<glyph name="decyr" format="2">
  <advance width="780"/>
  <unicode hex="0434"/>
  <anchor x="409" y="-20" name="bottom"/>
  <anchor x="410" y="520" name="top"/>
  <outline>
    <contour>
      <point x="130" y="-140" type="line"/>
      <point x="131" y="-107"/>
      <point x="117" y="0"/>
      <point x="176" y="0" type="curve" smooth="yes"/>
      <point x="596" y="0" type="line" smooth="yes"/>
      <point x="667" y="0"/>
      <point x="648" y="-102"/>
      <point x="648" y="-140" type="curve"/>
      <point x="725" y="-140" type="line"/>
      <point x="725" y="35"/>
      <point x="704" y="69"/>
      <point x="604" y="69" type="curve"/>
      <point x="604" y="500" type="line"/>
      <point x="225" y="500" type="line"/>
      <point x="225" y="315.571" type="line" smooth="yes"/>
      <point x="225" y="179.254"/>
      <point x="213" y="101.072"/>
      <point x="188" y="70" type="curve"/>
      <point x="88" y="70"/>
      <point x="54" y="39.1469"/>
      <point x="54" y="-140" type="curve"/>
    </contour>
    <contour>
      <point x="222" y="70" type="line"/>
      <point x="293" y="94"/>
      <point x="315" y="192"/>
      <point x="315" y="430" type="curve"/>
      <point x="514" y="430" type="line"/>
      <point x="514" y="70" type="line"/>
    </contour>
  </outline>
</glyph>
<glyph name="elcyr" format="2">
  <advance width="600"/>
  <unicode hex="043B"/>
  <outline>
    <contour>
      <point x="63" y="50" type="curve" smooth="yes"/>
      <point x="123" y="50"/>
      <point x="136" y="168"/>
      <point x="136" y="500" type="curve"/>
      <point x="507" y="500" type="line"/>
      <point x="507" y="0" type="line"/>
      <point x="417" y="0" type="line"/>
      <point x="417" y="430" type="line"/>
      <point x="226" y="430" type="line"/>
      <point x="226" y="71"/>
      <point x="193" y="-20"/>
      <point x="61" y="-20" type="curve" smooth="yes"/>
      <point x="51" y="-20"/>
      <point x="36" y="-18"/>
      <point x="21" y="-16" type="curve"/>
      <point x="37" y="53" type="line"/>
      <point x="47" y="51"/>
      <point x="55" y="50"/>
    </contour>
  </outline>
</glyph>
<glyph name="encyr" format="2">
  <advance width="613"/>
  <unicode hex="043D"/>
  <anchor x="306" y="-20" name="bottom"/>
  <anchor x="306" y="520" name="top"/>
  <outline>
    <contour>
      <point x="180" y="0" type="line"/>
      <point x="180" y="235" type="line"/>
      <point x="433" y="235" type="line"/>
      <point x="433" y="0" type="line"/>
      <point x="523" y="0" type="line"/>
      <point x="523" y="500" type="line"/>
      <point x="433" y="500" type="line"/>
      <point x="433" y="305" type="line"/>
      <point x="180" y="305" type="line"/>
      <point x="180" y="500" type="line"/>
      <point x="90" y="500" type="line"/>
      <point x="90" y="0" type="line"/>
    </contour>
  </outline>
</glyph>
<glyph name="ereversedcyr" format="2">
  <advance width="563"/>
  <unicode hex="044D"/>
  <anchor x="301" y="-20" name="bottom"/>
  <anchor x="281" y="520" name="top"/>
  <outline>
    <contour>
      <point x="430" y="220" type="line"/>
      <point x="166" y="220" type="line"/>
      <point x="166" y="285" type="line"/>
      <point x="430" y="285" type="line"/>
    </contour>
    <contour>
      <point x="271" y="50" type="curve" smooth="yes" name="dv02"/>
      <point x="368" y="50"/>
      <point x="416" y="118.342"/>
      <point x="416" y="255.025" type="curve" smooth="yes"/>
      <point x="416" y="387.688"/>
      <point x="369" y="450"/>
      <point x="269" y="450" type="curve" smooth="yes" name="sv01"/>
      <point x="210" y="450"/>
      <point x="154" y="423.639"/>
      <point x="118" y="377" type="curve"/>
      <point x="65" y="430" type="line"/>
      <point x="106" y="483"/>
      <point x="178" y="520"/>
      <point x="272" y="520" type="curve" smooth="yes" name="at01"/>
      <point x="422" y="520"/>
      <point x="506" y="421"/>
      <point x="506" y="255" type="curve" smooth="yes"/>
      <point x="506" y="79"/>
      <point x="420" y="-20"/>
      <point x="271" y="-20" type="curve" smooth="yes" name="dv01"/>
      <point x="175" y="-20"/>
      <point x="100" y="17"/>
      <point x="59" y="70" type="curve"/>
      <point x="112" y="123" type="line"/>
      <point x="148" y="76.3611"/>
      <point x="209" y="50"/>
    </contour>
  </outline>
</glyph>
<glyph name="austral" format="2">
  <advance width="718"/>
  <unicode hex="20B3"/>
  <outline>
    <component base="Elcyr.ss08" xOffset="31.5"/>
    <contour>
      <point x="13" y="148" type="line"/>
      <point x="705" y="148" type="line"/>
      <point x="705" y="191" type="line"/>
      <point x="13" y="191" type="line"/>
    </contour>
    <contour>
      <point x="13" y="287" type="line"/>
      <point x="705" y="287" type="line"/>
      <point x="705" y="330" type="line"/>
      <point x="13" y="330" type="line"/>
    </contour>
  </outline>
</glyph>
<glyph name="turkishlira" format="2">
  <advance width="640"/>
  <unicode hex="20BA"/>
  <outline>
    <contour>
      <point x="21" y="432" type="line"/>
      <point x="21" y="400" type="line"/>
      <point x="443" y="527" type="line"/>
      <point x="443" y="560" type="line"/>
    </contour>
    <contour>
      <point x="21" y="315" type="line"/>
      <point x="21" y="283" type="line"/>
      <point x="443" y="410" type="line"/>
      <point x="443" y="443" type="line"/>
    </contour>
    <contour>
      <point x="586" y="283" type="curve"/>
      <point x="505" y="255" type="line"/>
      <point x="505" y="150"/>
      <point x="453" y="80"/>
      <point x="318" y="80" type="curve" smooth="yes"/>
      <point x="234" y="80" type="line"/>
      <point x="234" y="700" type="line"/>
      <point x="144" y="700" type="line"/>
      <point x="144" y="0" type="line"/>
      <point x="307" y="0" type="line" smooth="yes"/>
      <point x="509" y="0"/>
      <point x="586" y="78"/>
    </contour>
  </outline>
</glyph>
<glyph name="G.ss03" format="2">
  <advance width="773"/>
  <anchor x="397" y="-19" name="bottom"/>
  <anchor x="387" y="719" name="top"/>
  <outline>
    <contour>
      <point x="389" y="720" type="curve" smooth="yes"/>
      <point x="504" y="720"/>
      <point x="595" y="680"/>
      <point x="663" y="603" type="curve"/>
      <point x="627" y="499" type="line"/>
      <point x="555" y="618.85"/>
      <point x="474" y="640"/>
      <point x="389" y="640" type="curve" smooth="yes"/>
      <point x="255" y="640"/>
      <point x="153" y="530.623"/>
      <point x="153" y="351.003" type="curve" smooth="yes" name="dv07"/>
      <point x="153" y="164.36"/>
      <point x="262" y="60"/>
      <point x="402" y="60" type="curve" smooth="yes" name="dv04"/>
      <point x="532" y="60"/>
      <point x="620" y="156"/>
      <point x="620" y="290" type="curve" name="sv02"/>
      <point x="380" y="290" type="line" name="dv05"/>
      <point x="380" y="370" type="line" name="dv06"/>
      <point x="710" y="370" type="line" name="sv01"/>
      <point x="710" y="316.864" type="line" smooth="yes" name="sv03"/>
      <point x="710" y="117.352"/>
      <point x="588" y="-20"/>
      <point x="396" y="-20" type="curve" smooth="yes" name="dv03"/>
      <point x="201" y="-20"/>
      <point x="63" y="132"/>
      <point x="63" y="348" type="curve" smooth="yes" name="dv08"/>
      <point x="63" y="561"/>
      <point x="184" y="720"/>
    </contour>
  </outline>
</glyph>
<glyph name="G.ss15" format="2">
  <advance width="767"/>
  <anchor x="393" y="-19" name="bottom"/>
  <anchor x="393" y="719" name="top"/>
  <outline>
    <contour>
      <point x="387" y="720" type="curve" smooth="yes"/>
      <point x="495" y="720"/>
      <point x="578" y="680"/>
      <point x="653" y="595" type="curve"/>
      <point x="644" y="530" type="line"/>
      <point x="566" y="609"/>
      <point x="487" y="640"/>
      <point x="399" y="640" type="curve" smooth="yes"/>
      <point x="243" y="640"/>
      <point x="153" y="529"/>
      <point x="153" y="347" type="curve" smooth="yes"/>
      <point x="153" y="170"/>
      <point x="239" y="61"/>
      <point x="386" y="61" type="curve" smooth="yes"/>
      <point x="530" y="61"/>
      <point x="617" y="166"/>
      <point x="617" y="309" type="curve"/>
      <point x="627" y="284" type="line"/>
      <point x="387" y="284" type="line"/>
      <point x="387" y="364" type="line"/>
      <point x="704" y="364" type="line"/>
      <point x="704" y="312" type="line" smooth="yes"/>
      <point x="704" y="123"/>
      <point x="581" y="-19"/>
      <point x="388" y="-19" type="curve" smooth="yes"/>
      <point x="189" y="-19"/>
      <point x="63" y="132"/>
      <point x="63" y="350" type="curve" smooth="yes"/>
      <point x="63" y="563"/>
      <point x="183" y="720"/>
    </contour>
  </outline>
</glyph>
<glyph name="Germandbls.ss09" format="2">
  <advance width="723"/>
  <outline>
    <contour>
      <point x="407" y="553" type="line" smooth="yes"/>
      <point x="343" y="499"/>
      <point x="308" y="459"/>
      <point x="308" y="397" type="curve" smooth="yes"/>
      <point x="308" y="225"/>
      <point x="574" y="290"/>
      <point x="574" y="143" type="curve" smooth="yes"/>
      <point x="574" y="90"/>
      <point x="540" y="61"/>
      <point x="472" y="61" type="curve" smooth="yes"/>
      <point x="402" y="61"/>
      <point x="364" y="91"/>
      <point x="362" y="157" type="curve"/>
      <point x="272" y="157" type="line"/>
      <point x="290" y="38"/>
      <point x="352" y="-20"/>
      <point x="467" y="-20" type="curve" smooth="yes"/>
      <point x="591" y="-20"/>
      <point x="664" y="47"/>
      <point x="664" y="149" type="curve" smooth="yes"/>
      <point x="664" y="345"/>
      <point x="397" y="289"/>
      <point x="397" y="413" type="curve" smooth="yes"/>
      <point x="397" y="461"/>
      <point x="437" y="493"/>
      <point x="460" y="512" type="curve" smooth="yes"/>
      <point x="616" y="643" type="line"/>
      <point x="547" y="684"/>
      <point x="452" y="720"/>
      <point x="342" y="720" type="curve" smooth="yes"/>
      <point x="162" y="720"/>
      <point x="94" y="624"/>
      <point x="94" y="489" type="curve" smooth="yes"/>
      <point x="94" y="0" type="line"/>
      <point x="194" y="0" type="line"/>
      <point x="194" y="482" type="line" smooth="yes"/>
      <point x="194" y="594"/>
      <point x="243" y="639"/>
      <point x="352" y="639" type="curve" smooth="yes"/>
      <point x="408" y="639"/>
      <point x="453" y="627"/>
      <point x="481" y="615" type="curve"/>
    </contour>
  </outline>
</glyph>
<glyph name="J.ss07" format="2">
  <advance width="400"/>
  <anchor x="272" y="719" name="top"/>
  <anchor x="172" y="-71" name="bottom"/>
  <outline>
    <contour>
      <point x="20" y="-134" type="line"/>
      <point x="234" y="-134"/>
      <point x="311" y="-57"/>
      <point x="311" y="155" type="curve" smooth="yes"/>
      <point x="311" y="700" type="line"/>
      <point x="221" y="700" type="line"/>
      <point x="221" y="112" type="line" smooth="yes"/>
      <point x="221" y="-16"/>
      <point x="165" y="-54"/>
      <point x="20" y="-54" type="curve"/>
    </contour>
  </outline>
</glyph>
<glyph name="J.ss12" format="2">
  <advance width="500"/>
  <anchor x="369" y="719" name="top"/>
  <anchor x="206" y="-20" name="bottom"/>
  <outline>
    <contour>
      <point x="193" y="-20" type="curve" smooth="yes"/>
      <point x="335" y="-20"/>
      <point x="411" y="47"/>
      <point x="411" y="222" type="curve" smooth="yes"/>
      <point x="411" y="700" type="line"/>
      <point x="321" y="700" type="line"/>
      <point x="321" y="217" type="line" smooth="yes"/>
      <point x="321" y="109"/>
      <point x="283" y="60"/>
      <point x="188" y="60" type="curve" smooth="yes"/>
      <point x="149" y="60"/>
      <point x="95" y="68"/>
      <point x="30" y="91" type="curve"/>
      <point x="21" y="26" type="line"/>
      <point x="65" y="0"/>
      <point x="115" y="-20"/>
    </contour>
  </outline>
</glyph>
<glyph name="Ljecyr.ss08" format="2">
  <advance width="920"/>
  <outline>
    <component base="Elcyr.ss08"/>
    <contour>
      <point x="547" y="0" type="line"/>
      <point x="637" y="0" type="line" smooth="yes"/>
      <point x="785" y="0"/>
      <point x="861" y="62"/>
      <point x="861" y="186" type="curve" smooth="yes"/>
      <point x="861" y="315"/>
      <point x="779" y="380"/>
      <point x="621" y="380" type="curve" smooth="yes"/>
      <point x="444" y="380" type="line"/>
      <point x="459" y="300" type="line"/>
      <point x="587" y="300" type="line" smooth="yes"/>
      <point x="729" y="300"/>
      <point x="771" y="275"/>
      <point x="771" y="188" type="curve" smooth="yes"/>
      <point x="771" y="103"/>
      <point x="733" y="80"/>
      <point x="589" y="80" type="curve" smooth="yes"/>
      <point x="549" y="80" type="line"/>
      <point x="553" y="2" type="line"/>
    </contour>
  </outline>
</glyph>
<glyph name="M.ss01" format="2">
  <advance width="870"/>
  <anchor x="435" y="719" name="top"/>
  <anchor x="435" y="-20" name="bottom"/>
  <outline>
    <contour>
      <point x="435" y="266" type="line" name="iv01"/>
      <point x="184" y="700" type="line" name="at01"/>
      <point x="97" y="700" type="line"/>
      <point x="97" y="0" type="line" name="ab01"/>
      <point x="187" y="0" type="line"/>
      <point x="187" y="533" type="line" name="iv02"/>
      <point x="392" y="178" type="line"/>
      <point x="478" y="178" type="line"/>
      <point x="683" y="533" type="line" name="iv03"/>
      <point x="683" y="0" type="line" name="ab02"/>
      <point x="773" y="0" type="line"/>
      <point x="773" y="700" type="line" name="at02"/>
      <point x="686" y="700" type="line"/>
    </contour>
  </outline>
</glyph>
<glyph name="ae.ss15" format="2">
  <advance width="861"/>
  <outline>
    <contour>
      <point x="370.633" y="288" type="line"/>
      <point x="370.633" y="268"/>
      <point x="323.299" y="220"/>
      <point x="236.561" y="220" type="curve" smooth="yes"/>
      <point x="169.526" y="220"/>
      <point x="131.09" y="191"/>
      <point x="131.09" y="134" type="curve" smooth="yes"/>
      <point x="131.09" y="81"/>
      <point x="163.629" y="50"/>
      <point x="225.771" y="50" type="curve" smooth="yes"/>
      <point x="300.73" y="50"/>
      <point x="370.836" y="94"/>
      <point x="370.77" y="157" type="curve" smooth="yes"/>
    </contour>
    <contour>
      <point x="460.182" y="308" type="curve"/>
      <point x="723.07" y="308" type="line"/>
      <point x="726.07" y="404"/>
      <point x="672.37" y="450"/>
      <point x="594.443" y="450" type="curve" smooth="yes"/>
      <point x="515.577" y="450"/>
      <point x="460.183" y="392"/>
    </contour>
    <contour>
      <point x="254.75" y="450" type="curve" smooth="yes"/>
      <point x="197.532" y="450"/>
      <point x="153.138" y="432"/>
      <point x="76.19" y="377" type="curve"/>
      <point x="69.26" y="442" type="line"/>
      <point x="118.986" y="494"/>
      <point x="181.388" y="520"/>
      <point x="257.44" y="520" type="curve" smooth="yes"/>
      <point x="335.787" y="520"/>
      <point x="394.88" y="492.7"/>
      <point x="427.27" y="444.92" type="curve"/>
      <point x="466.54" y="492.22"/>
      <point x="525.404" y="520"/>
      <point x="597.11" y="520" type="curve" smooth="yes"/>
      <point x="728.71" y="520"/>
      <point x="830.33" y="408"/>
      <point x="813.31" y="243" type="curve"/>
      <point x="460.582" y="243" type="line"/>
      <point x="454.912" y="148.37"/>
      <point x="504.374" y="50"/>
      <point x="610.508" y="50" type="curve" smooth="yes"/>
      <point x="672.461" y="50"/>
      <point x="725.027" y="77"/>
      <point x="779.47" y="134" type="curve"/>
      <point x="786.05" y="69" type="line"/>
      <point x="732.47" y="7"/>
      <point x="680.77" y="-20"/>
      <point x="608.25" y="-20" type="curve" smooth="yes"/>
      <point x="512.51" y="-20"/>
      <point x="441.77" y="27.05"/>
      <point x="403.62" y="103.95" type="curve"/>
      <point x="367.24" y="23.4181"/>
      <point x="300.901" y="-20"/>
      <point x="214.234" y="-20" type="curve" smooth="yes"/>
      <point x="111.448" y="-20"/>
      <point x="41.09" y="45.63"/>
      <point x="41.09" y="144.07" type="curve" smooth="yes"/>
      <point x="41.09" y="236.68"/>
      <point x="109.275" y="285"/>
      <point x="233.792" y="285" type="curve" smooth="yes"/>
      <point x="329.65" y="285"/>
      <point x="370.182" y="312.66"/>
      <point x="370.182" y="367" type="curve" smooth="yes"/>
      <point x="370.182" y="426.28"/>
      <point x="320.837" y="450"/>
    </contour>
  </outline>
</glyph>
<glyph name="c.ss12" format="2">
  <advance width="570"/>
  <anchor x="310" y="520" name="top"/>
  <anchor x="310" y="-20" name="bottom"/>
  <outline>
    <contour>
      <point x="500" y="69" type="curve"/>
      <point x="493" y="134" type="line"/>
      <point x="435" y="77"/>
      <point x="379" y="50"/>
      <point x="313" y="50" type="curve" smooth="yes"/>
      <point x="214" y="50"/>
      <point x="159" y="131"/>
      <point x="159" y="255" type="curve" smooth="yes"/>
      <point x="159" y="377"/>
      <point x="210" y="450"/>
      <point x="311" y="450" type="curve" smooth="yes"/>
      <point x="373" y="450"/>
      <point x="419" y="431"/>
      <point x="494" y="377" type="curve"/>
      <point x="501" y="441" type="line"/>
      <point x="450" y="494"/>
      <point x="386" y="520"/>
      <point x="309" y="520" type="curve" smooth="yes"/>
      <point x="157" y="520"/>
      <point x="69" y="411"/>
      <point x="69" y="255" type="curve" smooth="yes"/>
      <point x="69" y="91"/>
      <point x="163" y="-20"/>
      <point x="315" y="-20" type="curve" smooth="yes"/>
      <point x="388" y="-20"/>
      <point x="443" y="7"/>
    </contour>
  </outline>
</glyph>
<glyph name="cent.ss09" format="2">
  <advance width="611"/>
  <outline>
    <component base="c.ss09" yOffset="101"/>
    <contour>
      <point x="340.5" y="610" type="line"/>
      <point x="340.5" y="730" type="line"/>
      <point x="290.5" y="730" type="line"/>
      <point x="290.5" y="610" type="line"/>
    </contour>
    <contour>
      <point x="291.5" y="89" type="line"/>
      <point x="291.5" y="-31" type="line"/>
      <point x="339.5" y="-31" type="line"/>
      <point x="339.5" y="90" type="line"/>
    </contour>
  </outline>
</glyph>
<glyph name="germandbls.ss12" format="2">
  <advance width="730"/>
  <outline>
    <contour>
      <point x="463" y="50" type="curve" smooth="yes"/>
      <point x="411" y="50"/>
      <point x="365" y="69"/>
      <point x="290" y="123" type="curve"/>
      <point x="283" y="59" type="line"/>
      <point x="334" y="6"/>
      <point x="398" y="-20"/>
      <point x="474" y="-20" type="curve" smooth="yes"/>
      <point x="599" y="-20"/>
      <point x="662" y="48.9104"/>
      <point x="662" y="129.805" type="curve" smooth="yes"/>
      <point x="662" y="278.612"/>
      <point x="451" y="275.616"/>
      <point x="451" y="372.49" type="curve" smooth="yes"/>
      <point x="451" y="437.405"/>
      <point x="548" y="449.39"/>
      <point x="548" y="565.239" type="curve" smooth="yes"/>
      <point x="548" y="675.096"/>
      <point x="460" y="749"/>
      <point x="324" y="749" type="curve" smooth="yes"/>
      <point x="183" y="749"/>
      <point x="94" y="669.107"/>
      <point x="94" y="534.287" type="curve" smooth="yes"/>
      <point x="94" y="0" type="line"/>
      <point x="184" y="0" type="line"/>
      <point x="184" y="538" type="line" smooth="yes"/>
      <point x="184" y="629"/>
      <point x="235" y="679"/>
      <point x="328" y="679" type="curve" smooth="yes"/>
      <point x="411" y="679"/>
      <point x="458" y="640"/>
      <point x="458" y="565" type="curve" smooth="yes"/>
      <point x="458" y="458"/>
      <point x="361" y="445"/>
      <point x="361" y="356" type="curve" smooth="yes"/>
      <point x="361" y="224"/>
      <point x="572" y="237"/>
      <point x="572" y="130" type="curve" smooth="yes"/>
      <point x="572" y="85"/>
      <point x="534" y="50"/>
    </contour>
  </outline>
</glyph>
<glyph name="lira.ss09" format="2">
  <advance width="660"/>
  <outline>
    <contour>
      <point x="47" y="0" type="line"/>
      <point x="607" y="0" type="line"/>
      <point x="607" y="80" type="line"/>
      <point x="150" y="80" type="line"/>
      <point x="200" y="109"/>
      <point x="216" y="163"/>
      <point x="218" y="245" type="curve"/>
      <point x="482" y="245" type="line"/>
      <point x="482" y="285" type="line"/>
      <point x="219" y="285" type="line"/>
      <point x="219" y="385" type="line"/>
      <point x="482" y="385" type="line"/>
      <point x="482" y="425" type="line"/>
      <point x="219" y="425" type="line"/>
      <point x="219" y="563"/>
      <point x="261" y="639"/>
      <point x="364" y="639" type="curve" smooth="yes"/>
      <point x="444" y="639"/>
      <point x="493" y="598"/>
      <point x="516" y="499" type="curve"/>
      <point x="606" y="499" type="line"/>
      <point x="591" y="626"/>
      <point x="505" y="720"/>
      <point x="359" y="720" type="curve" smooth="yes"/>
      <point x="204" y="720"/>
      <point x="129" y="603"/>
      <point x="129" y="425" type="curve"/>
      <point x="51" y="425" type="line"/>
      <point x="51" y="385" type="line"/>
      <point x="129" y="385" type="line"/>
      <point x="129" y="285" type="line"/>
      <point x="51" y="285" type="line"/>
      <point x="51" y="245" type="line"/>
      <point x="129" y="245" type="line"/>
      <point x="129" y="151"/>
      <point x="93" y="78"/>
      <point x="47" y="50" type="curve"/>
    </contour>
  </outline>
</glyph>
<glyph name="nine.ss10.osf" format="2">
  <advance width="667"/>
  <outline>
    <contour>
      <point x="500" y="326" type="curve" smooth="yes"/>
      <point x="500" y="414"/>
      <point x="437" y="489"/>
      <point x="320" y="489" type="curve" smooth="yes"/>
      <point x="206" y="489"/>
      <point x="157" y="417"/>
      <point x="157" y="325" type="curve" smooth="yes"/>
      <point x="157" y="222"/>
      <point x="219" y="168"/>
      <point x="320" y="168" type="curve" smooth="yes"/>
      <point x="434" y="168"/>
      <point x="500" y="236"/>
    </contour>
    <contour>
      <point x="321" y="-171" type="curve" smooth="yes"/>
      <point x="220" y="-171"/>
      <point x="131" y="-131"/>
      <point x="63" y="-54" type="curve"/>
      <point x="99" y="50" type="line"/>
      <point x="156" y="-44"/>
      <point x="235" y="-90"/>
      <point x="322" y="-90" type="curve" smooth="yes"/>
      <point x="459" y="-90"/>
      <point x="530" y="25"/>
      <point x="530" y="228" type="curve"/>
      <point x="498" y="149"/>
      <point x="425" y="96"/>
      <point x="311" y="96" type="curve" smooth="yes"/>
      <point x="166" y="96"/>
      <point x="67" y="182"/>
      <point x="67" y="326" type="curve" smooth="yes"/>
      <point x="67" y="459"/>
      <point x="152" y="569"/>
      <point x="317" y="569" type="curve" smooth="yes"/>
      <point x="499" y="569"/>
      <point x="604" y="434"/>
      <point x="604" y="195" type="curve" smooth="yes"/>
      <point x="604" y="-32"/>
      <point x="509" y="-171"/>
    </contour>
  </outline>
</glyph>
<glyph name="oe.ss09" format="2">
  <advance width="954"/>
  <outline>
    <contour>
      <point x="63.55" y="255" type="curve" smooth="yes"/>
      <point x="63.55" y="79"/>
      <point x="143.35" y="-20"/>
      <point x="284.9" y="-20" type="curve" smooth="yes" name="dv01"/>
      <point x="438.8" y="-20"/>
      <point x="517.65" y="79"/>
      <point x="517.65" y="255" type="curve" smooth="yes"/>
      <point x="517.65" y="421"/>
      <point x="438.8" y="520"/>
      <point x="285.85" y="520" type="curve" smooth="yes" name="at01"/>
      <point x="143.35" y="520"/>
      <point x="63.55" y="421"/>
    </contour>
    <contour>
      <point x="432.15" y="253.015" type="curve" smooth="yes"/>
      <point x="432.15" y="115.327"/>
      <point x="385.6" y="50"/>
      <point x="286.8" y="50" type="curve" smooth="yes" name="dv02"/>
      <point x="194.65" y="50"/>
      <point x="149.05" y="118.342"/>
      <point x="149.05" y="255.025" type="curve" smooth="yes"/>
      <point x="149.05" y="387.688"/>
      <point x="193.7" y="450"/>
      <point x="288.7" y="450" type="curve" smooth="yes" name="sv01"/>
      <point x="384.65" y="450"/>
      <point x="432.15" y="383.668"/>
    </contour>
    <contour>
      <point x="520.55" y="308" type="line"/>
      <point x="520.55" y="402"/>
      <point x="585.15" y="450"/>
      <point x="664" y="450" type="curve" smooth="yes"/>
      <point x="741.9" y="450"/>
      <point x="798.9" y="403"/>
      <point x="798.9" y="308" type="curve"/>
    </contour>
    <contour>
      <point x="665.9" y="50" type="curve" smooth="yes"/>
      <point x="576.6" y="50"/>
      <point x="520.55" y="120.365"/>
      <point x="520.55" y="243" type="curve"/>
      <point x="890.1" y="243" type="line"/>
      <point x="890.1" y="402"/>
      <point x="815.05" y="520"/>
      <point x="664" y="520" type="curve" smooth="yes"/>
      <point x="512.95" y="520"/>
      <point x="434.1" y="401"/>
      <point x="434.1" y="255" type="curve" smooth="yes"/>
      <point x="434.1" y="95"/>
      <point x="520.55" y="-20"/>
      <point x="664" y="-20" type="curve" smooth="yes"/>
      <point x="794.15" y="-20"/>
      <point x="864.45" y="50"/>
      <point x="884.4" y="167" type="curve"/>
      <point x="797.95" y="167" type="line"/>
      <point x="794.15" y="85.3017"/>
      <point x="731.45" y="50"/>
    </contour>
  </outline>
</glyph>
<glyph name="one.osf" format="2">
  <advance width="611"/>
  <outline>
    <contour>
      <point x="80" y="289" type="line"/>
      <point x="224" y="320"/>
      <point x="258" y="350"/>
      <point x="304" y="404" type="curve"/>
      <point x="304" y="0" type="line"/>
      <point x="394" y="0" type="line"/>
      <point x="394" y="550" type="line"/>
      <point x="313" y="550" type="line"/>
      <point x="264" y="458"/>
      <point x="192" y="385"/>
      <point x="80" y="365" type="curve"/>
    </contour>
    <contour>
      <point x="70" y="0" type="line"/>
      <point x="541" y="0" type="line"/>
      <point x="541" y="80" type="line"/>
      <point x="70" y="80" type="line"/>
    </contour>
  </outline>
</glyph>
<glyph name="question.ss12" format="2">
  <advance width="551"/>
  <outline>
    <contour>
      <point x="189" y="36" type="curve" smooth="yes"/>
      <point x="189" y="6"/>
      <point x="213" y="-20"/>
      <point x="245" y="-20" type="curve" smooth="yes"/>
      <point x="278" y="-20"/>
      <point x="303" y="6"/>
      <point x="303" y="36" type="curve" smooth="yes"/>
      <point x="303" y="69"/>
      <point x="278" y="94"/>
      <point x="245" y="94" type="curve" smooth="yes"/>
      <point x="213" y="94"/>
      <point x="189" y="69"/>
    </contour>
    <contour>
      <point x="295" y="767" type="curve" smooth="yes"/>
      <point x="193" y="767"/>
      <point x="122" y="725"/>
      <point x="49" y="642" type="curve"/>
      <point x="58" y="577" type="line"/>
      <point x="133" y="653"/>
      <point x="202" y="687"/>
      <point x="294" y="687" type="curve" smooth="yes"/>
      <point x="379" y="687"/>
      <point x="425" y="642"/>
      <point x="425" y="573" type="curve" smooth="yes"/>
      <point x="425" y="483"/>
      <point x="375" y="424"/>
      <point x="200" y="355" type="curve"/>
      <point x="200" y="250" type="line"/>
      <point x="291" y="250" type="line"/>
      <point x="291" y="332" type="line"/>
      <point x="390" y="364"/>
      <point x="515" y="452"/>
      <point x="515" y="567" type="curve" smooth="yes"/>
      <point x="515" y="690"/>
      <point x="430" y="767"/>
    </contour>
  </outline>
</glyph>
<glyph name="s.ss10" format="2">
  <advance width="522"/>
  <anchor x="249" y="520" name="top"/>
  <anchor x="265" y="-20" name="bottom"/>
  <outline>
    <contour>
      <point x="245" y="520" type="curve" smooth="yes"/>
      <point x="331" y="520"/>
      <point x="403" y="488"/>
      <point x="446" y="435" type="curve"/>
      <point x="419" y="350" type="line"/>
      <point x="385" y="410"/>
      <point x="317" y="450"/>
      <point x="245" y="450" type="curve" smooth="yes"/>
      <point x="186" y="450"/>
      <point x="154" y="423"/>
      <point x="154" y="379.67" type="curve" smooth="yes"/>
      <point x="154" y="318.473"/>
      <point x="217.832" y="297.845"/>
      <point x="286.608" y="275.62" type="curve" smooth="yes"/>
      <point x="366.932" y="249.663"/>
      <point x="454" y="221.526"/>
      <point x="454" y="124.036" type="curve" smooth="yes"/>
      <point x="454" y="36"/>
      <point x="383" y="-20"/>
      <point x="264" y="-20" type="curve" smooth="yes"/>
      <point x="174" y="-20"/>
      <point x="99" y="12"/>
      <point x="56" y="65" type="curve"/>
      <point x="83" y="150" type="line"/>
      <point x="131" y="75"/>
      <point x="202" y="50"/>
      <point x="274" y="50" type="curve" smooth="yes"/>
      <point x="333" y="50"/>
      <point x="364" y="83"/>
      <point x="364" y="122.165" type="curve" smooth="yes"/>
      <point x="364" y="177.119"/>
      <point x="302.965" y="195.893"/>
      <point x="235.955" y="216.504" type="curve" smooth="yes"/>
      <point x="154.402" y="241.589"/>
      <point x="64" y="269.396"/>
      <point x="64" y="368.456" type="curve" smooth="yes"/>
      <point x="64" y="455"/>
      <point x="133" y="520"/>
    </contour>
  </outline>
</glyph>
<glyph name="six.ss10" format="2">
  <advance width="667"/>
  <outline>
    <contour>
      <point x="167" y="223" type="curve" smooth="yes"/>
      <point x="167" y="135"/>
      <point x="230" y="60"/>
      <point x="347" y="60" type="curve" smooth="yes"/>
      <point x="461" y="60"/>
      <point x="510" y="132"/>
      <point x="510" y="224" type="curve" smooth="yes"/>
      <point x="510" y="327"/>
      <point x="448" y="381"/>
      <point x="347" y="381" type="curve" smooth="yes"/>
      <point x="233" y="381"/>
      <point x="167" y="313"/>
    </contour>
    <contour>
      <point x="346" y="720" type="curve" smooth="yes"/>
      <point x="447" y="720"/>
      <point x="536" y="680"/>
      <point x="604" y="603" type="curve"/>
      <point x="568" y="499" type="line"/>
      <point x="511" y="593"/>
      <point x="432" y="639"/>
      <point x="345" y="639" type="curve" smooth="yes"/>
      <point x="208" y="639"/>
      <point x="137" y="524"/>
      <point x="137" y="321" type="curve"/>
      <point x="169" y="400"/>
      <point x="242" y="453"/>
      <point x="356" y="453" type="curve" smooth="yes"/>
      <point x="501" y="453"/>
      <point x="600" y="367"/>
      <point x="600" y="223" type="curve" smooth="yes"/>
      <point x="600" y="90"/>
      <point x="515" y="-20"/>
      <point x="350" y="-20" type="curve" smooth="yes"/>
      <point x="168" y="-20"/>
      <point x="63" y="115"/>
      <point x="63" y="354" type="curve" smooth="yes"/>
      <point x="63" y="581"/>
      <point x="158" y="720"/>
    </contour>
  </outline>
</glyph>
<glyph name="sterling.ss12" format="2">
  <advance width="600"/>
  <outline>
    <contour>
      <point x="42" y="346" type="line"/>
      <point x="462" y="346" type="line"/>
      <point x="462" y="288" type="line"/>
      <point x="42" y="288" type="line"/>
    </contour>
    <contour>
      <point x="373" y="60" type="curve" smooth="yes"/>
      <point x="429" y="60"/>
      <point x="485" y="87"/>
      <point x="543" y="144" type="curve"/>
      <point x="550" y="69" type="line"/>
      <point x="493" y="7"/>
      <point x="438" y="-20"/>
      <point x="376" y="-20" type="curve" smooth="yes"/>
      <point x="275" y="-20"/>
      <point x="260" y="50"/>
      <point x="187" y="50" type="curve" smooth="yes"/>
      <point x="161" y="50"/>
      <point x="130" y="41"/>
      <point x="61" y="0" type="curve"/>
      <point x="61" y="74" type="line"/>
      <point x="172" y="153"/>
      <point x="199" y="211"/>
      <point x="160" y="297" type="curve" smooth="yes"/>
      <point x="127" y="369"/>
      <point x="68" y="418"/>
      <point x="68" y="511" type="curve" smooth="yes"/>
      <point x="68" y="631"/>
      <point x="167" y="720"/>
      <point x="310" y="720" type="curve" smooth="yes"/>
      <point x="409" y="720"/>
      <point x="480" y="678"/>
      <point x="553" y="595" type="curve"/>
      <point x="544" y="530" type="line"/>
      <point x="470" y="605.688"/>
      <point x="402" y="640"/>
      <point x="319" y="640" type="curve" smooth="yes"/>
      <point x="232" y="640"/>
      <point x="158" y="603.061"/>
      <point x="158" y="506.22" type="curve" smooth="yes"/>
      <point x="158" y="424.354"/>
      <point x="210.706" y="375.279"/>
      <point x="239" y="322.521" type="curve" smooth="yes"/>
      <point x="278.706" y="248.485"/>
      <point x="263" y="178.757"/>
      <point x="190" y="115" type="curve"/>
      <point x="312" y="115"/>
      <point x="295" y="60"/>
    </contour>
  </outline>
</glyph>
<glyph name="three.ss12" format="2">
  <advance width="550"/>
  <outline>
    <contour>
      <point x="264" y="639" type="curve" smooth="yes"/>
      <point x="348" y="639"/>
      <point x="389" y="599.362"/>
      <point x="389" y="528.431" type="curve" smooth="yes"/>
      <point x="389" y="459.586"/>
      <point x="336" y="397"/>
      <point x="192" y="397" type="curve"/>
      <point x="192" y="352" type="line"/>
      <point x="387" y="352"/>
      <point x="480" y="409.564"/>
      <point x="480" y="527.777" type="curve" smooth="yes"/>
      <point x="480" y="638.793"/>
      <point x="413" y="720"/>
      <point x="280" y="720" type="curve" smooth="yes"/>
      <point x="185" y="720"/>
      <point x="105" y="680"/>
      <point x="35" y="595" type="curve"/>
      <point x="44" y="530" type="line"/>
      <point x="116" y="609"/>
      <point x="190" y="639"/>
    </contour>
    <contour>
      <point x="277" y="-20" type="curve" smooth="yes"/>
      <point x="414" y="-20"/>
      <point x="500" y="64.1984"/>
      <point x="500" y="178.174" type="curve" smooth="yes"/>
      <point x="500" y="301.391"/>
      <point x="401" y="363"/>
      <point x="192" y="363" type="curve"/>
      <point x="192" y="318" type="line"/>
      <point x="350" y="318"/>
      <point x="409" y="252.449"/>
      <point x="409" y="179.615" type="curve" smooth="yes"/>
      <point x="409" y="103.66"/>
      <point x="346" y="61"/>
      <point x="264" y="61" type="curve" smooth="yes"/>
      <point x="194" y="61"/>
      <point x="124" y="91"/>
      <point x="46" y="170" type="curve"/>
      <point x="37" y="105" type="line"/>
      <point x="112" y="20"/>
      <point x="181" y="-20"/>
    </contour>
  </outline>
</glyph>
